<svg width="164" height="27" viewBox="0 0 164 27" fill="none" xmlns="http://www.w3.org/2000/svg">
<path d="M16.752 10.804L6.608 14.772V14.836L16.752 18.804V23.156L0.56 16.82V12.788L16.752 6.452V10.804ZM28.7845 0.147999L32.4325 1.268L22.8325 26.196L19.2165 25.076L28.7845 0.147999ZM34.4878 0.307999H39.2878V10.612H39.3518C39.9064 9.86533 40.6104 9.34267 41.4638 9.044C42.3384 8.724 43.2771 8.564 44.2798 8.564C45.3891 8.564 46.3811 8.79867 47.2558 9.268C48.1304 9.716 48.8664 10.324 49.4638 11.092C50.0824 11.86 50.5518 12.7453 50.8718 13.748C51.2131 14.7293 51.3838 15.764 51.3838 16.852C51.3838 18.0253 51.2024 19.1027 50.8398 20.084C50.4771 21.0653 49.9544 21.9187 49.2718 22.644C48.6104 23.348 47.8104 23.9027 46.8718 24.308C45.9331 24.692 44.8878 24.884 43.7358 24.884C43.1811 24.884 42.6584 24.8093 42.1678 24.66C41.6771 24.5107 41.2184 24.3187 40.7917 24.084C40.3864 23.8493 40.0238 23.5933 39.7038 23.316C39.4051 23.0173 39.1598 22.7293 38.9678 22.452H38.9038V24.5H34.4878V0.307999ZM38.9038 16.724C38.9038 17.8973 39.2344 18.8467 39.8958 19.572C40.5784 20.2973 41.5278 20.66 42.7438 20.66C43.9598 20.66 44.8984 20.2973 45.5598 19.572C46.2424 18.8467 46.5838 17.8973 46.5838 16.724C46.5838 15.5507 46.2424 14.6013 45.5598 13.876C44.8984 13.1507 43.9598 12.788 42.7438 12.788C41.5278 12.788 40.5784 13.1507 39.8958 13.876C39.2344 14.6013 38.9038 15.5507 38.9038 16.724ZM68.916 21.812C68.148 22.7933 67.1773 23.5507 66.004 24.084C64.8307 24.6173 63.6147 24.884 62.356 24.884C61.1613 24.884 60.0307 24.692 58.964 24.308C57.9187 23.924 57.0013 23.38 56.212 22.676C55.444 21.9507 54.836 21.0867 54.388 20.084C53.94 19.0813 53.716 17.9613 53.716 16.724C53.716 15.4867 53.94 14.3667 54.388 13.364C54.836 12.3613 55.444 11.508 56.212 10.804C57.0013 10.0787 57.9187 9.524 58.964 9.14C60.0307 8.756 61.1613 8.564 62.356 8.564C63.4653 8.564 64.468 8.756 65.364 9.14C66.2813 9.524 67.0493 10.0787 67.668 10.804C68.308 11.508 68.7987 12.3613 69.14 13.364C69.4813 14.3667 69.652 15.4867 69.652 16.724V18.228H58.516C58.708 19.1453 59.124 19.8813 59.764 20.436C60.404 20.9693 61.1933 21.236 62.132 21.236C62.9213 21.236 63.5827 21.0653 64.116 20.724C64.6707 20.3613 65.1507 19.9027 65.556 19.348L68.916 21.812ZM64.852 14.964C64.8733 14.1533 64.6067 13.46 64.052 12.884C63.4973 12.308 62.7827 12.02 61.908 12.02C61.3747 12.02 60.9053 12.1053 60.5 12.276C60.0947 12.4467 59.7427 12.6707 59.444 12.948C59.1667 13.204 58.9427 13.5133 58.772 13.876C58.6227 14.2173 58.5373 14.58 58.516 14.964H64.852ZM83.099 13.972C82.8643 13.6307 82.5337 13.3533 82.107 13.14C81.6803 12.9053 81.2217 12.788 80.731 12.788C79.515 12.788 78.5657 13.1507 77.883 13.876C77.2217 14.6013 76.891 15.5507 76.891 16.724C76.891 17.8973 77.2217 18.8467 77.883 19.572C78.5657 20.2973 79.515 20.66 80.731 20.66C81.2643 20.66 81.723 20.5427 82.107 20.308C82.491 20.0733 82.8217 19.796 83.099 19.476L86.267 22.804C85.5203 23.572 84.635 24.116 83.611 24.436C82.6083 24.7347 81.6483 24.884 80.731 24.884C79.5363 24.884 78.4057 24.692 77.339 24.308C76.2937 23.924 75.3763 23.38 74.587 22.676C73.819 21.9507 73.211 21.0867 72.763 20.084C72.315 19.0813 72.091 17.9613 72.091 16.724C72.091 15.4867 72.315 14.3667 72.763 13.364C73.211 12.3613 73.819 11.508 74.587 10.804C75.3763 10.0787 76.2937 9.524 77.339 9.14C78.4057 8.756 79.5363 8.564 80.731 8.564C81.6483 8.564 82.6083 8.724 83.611 9.044C84.635 9.34267 85.5203 9.876 86.267 10.644L83.099 13.972ZM87.4325 16.724C87.4325 15.4867 87.6565 14.3667 88.1045 13.364C88.5525 12.3613 89.1605 11.508 89.9285 10.804C90.7178 10.0787 91.6352 9.524 92.6805 9.14C93.7472 8.756 94.8778 8.564 96.0725 8.564C97.2672 8.564 98.3872 8.756 99.4325 9.14C100.499 9.524 101.417 10.0787 102.185 10.804C102.974 11.508 103.593 12.3613 104.041 13.364C104.489 14.3667 104.713 15.4867 104.713 16.724C104.713 17.9613 104.489 19.0813 104.041 20.084C103.593 21.0867 102.974 21.9507 102.185 22.676C101.417 23.38 100.499 23.924 99.4325 24.308C98.3872 24.692 97.2672 24.884 96.0725 24.884C94.8778 24.884 93.7472 24.692 92.6805 24.308C91.6352 23.924 90.7178 23.38 89.9285 22.676C89.1605 21.9507 88.5525 21.0867 88.1045 20.084C87.6565 19.0813 87.4325 17.9613 87.4325 16.724ZM92.2325 16.724C92.2325 17.8973 92.5632 18.8467 93.2245 19.572C93.9072 20.2973 94.8565 20.66 96.0725 20.66C97.2885 20.66 98.2272 20.2973 98.8885 19.572C99.5712 18.8467 99.9125 17.8973 99.9125 16.724C99.9125 15.5507 99.5712 14.6013 98.8885 13.876C98.2272 13.1507 97.2885 12.788 96.0725 12.788C94.8565 12.788 93.9072 13.1507 93.2245 13.876C92.5632 14.6013 92.2325 15.5507 92.2325 16.724ZM123.86 24.5H119.444V22.452H119.38C119.188 22.7293 118.932 23.0173 118.612 23.316C118.313 23.5933 117.95 23.8493 117.524 24.084C117.118 24.3187 116.66 24.5107 116.148 24.66C115.657 24.8093 115.145 24.884 114.612 24.884C113.46 24.884 112.414 24.692 111.476 24.308C110.537 23.9027 109.726 23.348 109.044 22.644C108.382 21.9187 107.87 21.0653 107.508 20.084C107.145 19.1027 106.964 18.0253 106.964 16.852C106.964 15.764 107.124 14.7293 107.444 13.748C107.785 12.7453 108.254 11.86 108.852 11.092C109.47 10.324 110.217 9.716 111.092 9.268C111.966 8.79867 112.958 8.564 114.068 8.564C115.07 8.564 115.998 8.724 116.852 9.044C117.726 9.34267 118.441 9.86533 118.996 10.612H119.06V0.307999H123.86V24.5ZM119.444 16.724C119.444 15.5507 119.102 14.6013 118.42 13.876C117.758 13.1507 116.82 12.788 115.604 12.788C114.388 12.788 113.438 13.1507 112.756 13.876C112.094 14.6013 111.764 15.5507 111.764 16.724C111.764 17.8973 112.094 18.8467 112.756 19.572C113.438 20.2973 114.388 20.66 115.604 20.66C116.82 20.66 117.758 20.2973 118.42 19.572C119.102 18.8467 119.444 17.8973 119.444 16.724ZM142.416 21.812C141.648 22.7933 140.677 23.5507 139.504 24.084C138.331 24.6173 137.115 24.884 135.856 24.884C134.661 24.884 133.531 24.692 132.464 24.308C131.419 23.924 130.501 23.38 129.712 22.676C128.944 21.9507 128.336 21.0867 127.888 20.084C127.44 19.0813 127.216 17.9613 127.216 16.724C127.216 15.4867 127.44 14.3667 127.888 13.364C128.336 12.3613 128.944 11.508 129.712 10.804C130.501 10.0787 131.419 9.524 132.464 9.14C133.531 8.756 134.661 8.564 135.856 8.564C136.965 8.564 137.968 8.756 138.864 9.14C139.781 9.524 140.549 10.0787 141.168 10.804C141.808 11.508 142.299 12.3613 142.64 13.364C142.981 14.3667 143.152 15.4867 143.152 16.724V18.228H132.016C132.208 19.1453 132.624 19.8813 133.264 20.436C133.904 20.9693 134.693 21.236 135.632 21.236C136.421 21.236 137.083 21.0653 137.616 20.724C138.171 20.3613 138.651 19.9027 139.056 19.348L142.416 21.812ZM138.352 14.964C138.373 14.1533 138.107 13.46 137.552 12.884C136.997 12.308 136.283 12.02 135.408 12.02C134.875 12.02 134.405 12.1053 134 12.276C133.595 12.4467 133.243 12.6707 132.944 12.948C132.667 13.204 132.443 13.5133 132.272 13.876C132.123 14.2173 132.037 14.58 132.016 14.964H138.352ZM146.935 18.804L157.079 14.836V14.772L146.935 10.804V6.452L163.127 12.788V16.82L146.935 23.156V18.804Z" fill="white"/>
</svg>
