<svg width="25" height="24" viewBox="0 0 25 24" fill="none" xmlns="http://www.w3.org/2000/svg">
<path fill-rule="evenodd" clip-rule="evenodd" d="M5.5 3H19.5C20.6046 3 21.5 3.89543 21.5 5V19C21.5 20.1046 20.6046 21 19.5 21H5.5C4.39543 21 3.5 20.1046 3.5 19V5C3.5 3.89543 4.39543 3 5.5 3ZM8.5 18C8.77614 18 9 17.7761 9 17.5V10.5C9 10.2239 8.77614 10 8.5 10H7C6.72386 10 6.5 10.2239 6.5 10.5V17.5C6.5 17.7761 6.72386 18 7 18H8.5ZM7.75 9C6.92157 9 6.25 8.32843 6.25 7.5C6.25 6.67157 6.92157 6 7.75 6C8.57843 6 9.25 6.67157 9.25 7.5C9.25 8.32843 8.57843 9 7.75 9ZM18 18C18.2761 18 18.5 17.7761 18.5 17.5V12.9C18.5325 11.3108 17.3576 9.95452 15.78 9.76C14.677 9.65925 13.6083 10.1744 13 11.1V10.5C13 10.2239 12.7761 10 12.5 10H11C10.7239 10 10.5 10.2239 10.5 10.5V17.5C10.5 17.7761 10.7239 18 11 18H12.5C12.7761 18 13 17.7761 13 17.5V13.75C13 12.9216 13.6716 12.25 14.5 12.25C15.3284 12.25 16 12.9216 16 13.75V17.5C16 17.7761 16.2239 18 16.5 18H18Z" fill="#F49617"/>
</svg>
