<svg width="49" height="48" viewBox="0 0 49 48" fill="none" xmlns="http://www.w3.org/2000/svg">
<path d="M34.3335 42.0006C31.0261 41.9976 27.7701 41.1802 24.8535 39.6206L23.9535 39.1206C17.735 35.7772 12.6369 30.679 9.2935 24.4606L8.7935 23.5606C7.19314 20.6274 6.34776 17.3419 6.3335 14.0005V12.6605C6.33266 11.5945 6.75742 10.5721 7.5135 9.82053L10.8935 6.44053C11.2218 6.10973 11.6851 5.9503 12.1474 6.00906C12.6097 6.06782 13.0185 6.33814 13.2535 6.74054L17.7535 14.4605C18.2086 15.2463 18.0772 16.2401 17.4335 16.8805L13.6535 20.6606C13.3396 20.971 13.2664 21.4506 13.4735 21.8406L14.1735 23.1606C16.6876 27.8174 20.5121 31.635 25.1735 34.1406L26.4935 34.8606C26.8835 35.0676 27.3631 34.9944 27.6735 34.6806L31.4535 30.9006C32.0939 30.257 33.0877 30.1256 33.8735 30.5806L41.5935 35.0806C41.9959 35.3156 42.2663 35.7244 42.3249 36.1866C42.3837 36.649 42.2243 37.1124 41.8935 37.4406L38.5135 40.8206C37.7619 41.5766 36.7395 42.0014 35.6735 42.0006H34.3335Z" fill="#F49617"/>
</svg>
