<svg width="49" height="48" viewBox="0 0 49 48" fill="none" xmlns="http://www.w3.org/2000/svg">
<path d="M24.6672 3.99902C16.6792 3.99902 10.1807 10.4976 10.1807 18.4854C10.1807 28.3986 23.1446 42.9516 23.6966 43.5662C24.215 44.1436 25.1202 44.1426 25.6378 43.5662C26.1896 42.9516 39.1536 28.3986 39.1536 18.4854C39.1534 10.4976 32.655 3.99902 24.6672 3.99902ZM24.6672 25.774C20.6482 25.774 17.3787 22.5044 17.3787 18.4854C17.3787 14.4665 20.6483 11.197 24.6672 11.197C28.686 11.197 31.9556 14.4666 31.9556 18.4855C31.9556 22.5044 28.686 25.774 24.6672 25.774Z" fill="#F49617"/>
</svg>
