<svg width="27" height="26" viewBox="0 0 27 26" fill="none" xmlns="http://www.w3.org/2000/svg">
<path fill-rule="evenodd" clip-rule="evenodd" d="M22.6717 7.63625L22.5246 7.37353C22.3348 7.05585 22.0672 6.79181 21.747 6.60641L14.6957 2.53959C14.3765 2.35438 14.014 2.25651 13.6449 2.25586H13.3401C12.971 2.25651 12.6085 2.35438 12.2893 2.53959L5.23802 6.61692C4.91957 6.80109 4.65506 7.0656 4.47089 7.38404L4.32377 7.64676C4.13856 7.96605 4.04069 8.32849 4.04004 8.69762V16.8418C4.04069 17.2109 4.13856 17.5734 4.32377 17.8926L4.47089 18.1553C4.65982 18.4701 4.92327 18.7335 5.23802 18.9225L12.2998 22.9893C12.6175 23.1783 12.9809 23.2765 13.3506 23.273H13.6449C14.014 23.2724 14.3765 23.1745 14.6957 22.9893L21.747 18.9119C22.0685 18.7319 22.3341 18.4664 22.5141 18.1448L22.6717 17.8821C22.8547 17.5619 22.9524 17.2001 22.9555 16.8313V8.68711C22.9548 8.31798 22.857 7.95554 22.6717 7.63625ZM13.3401 4.35757H13.6449L19.8029 7.90947L13.4978 11.5454L7.19261 7.90947L13.3401 4.35757ZM14.5486 20.6459L20.6961 17.094L20.8538 16.8313V9.72746L14.5486 13.3739V20.6459Z" fill="#060644"/>
</svg>
